<svg width="39" height="28" viewBox="0 0 39 28" fill="none" xmlns="http://www.w3.org/2000/svg">
<path fill-rule="evenodd" clip-rule="evenodd" d="M25.5967 10.0797C25.1379 9.99521 24.6671 9.94421 24.1843 9.94421C24.0414 9.94421 23.9025 9.95832 23.7616 9.96636C23.5205 9.40174 23.228 8.86527 22.8987 8.35561C23.3202 8.29725 23.7468 8.25701 24.1843 8.25701C24.3987 8.25701 24.609 8.27515 24.8194 8.28988C25.1266 8.85921 25.3797 9.46141 25.5967 10.0797ZM20.7872 10.7375C20.5321 10.2279 20.2282 9.74774 19.873 9.30914C20.3851 9.04564 20.9214 8.82436 21.4817 8.656C21.825 9.12877 22.1235 9.63305 22.3759 10.1655C21.821 10.2989 21.29 10.4921 20.7872 10.7375ZM17.3664 7.27498C17.912 6.9169 18.487 6.6024 19.0867 6.33216C19.619 6.69024 20.1125 7.1013 20.5605 7.55661C19.9836 7.76384 19.4273 8.01261 18.9004 8.31034C18.4336 7.90732 17.9194 7.55996 17.3664 7.27498ZM22.6152 5.33887C23.1061 5.82771 23.5489 6.3635 23.9542 6.9275C23.2831 6.94223 22.6239 7.00995 21.9875 7.14204C21.5561 6.64315 21.0832 6.18245 20.5697 5.76872C21.2295 5.56754 21.914 5.42806 22.6152 5.33887ZM24.1837 3.88766C23.8077 3.88766 23.4391 3.91448 23.0704 3.94465C20.6182 1.72169 17.382 0.355713 13.8258 0.355713C6.20205 0.355713 0 6.58336 0 14.2387V27.0991H1.33564V14.2387C1.33564 7.32303 6.93928 1.69687 13.8258 1.69687C16.6226 1.69687 19.1991 2.63568 21.2834 4.20081C20.5661 4.35505 19.8736 4.57366 19.2024 4.83451C17.617 3.91716 15.7845 3.38405 13.8258 3.38405C7.86556 3.38405 3.01586 8.2531 3.01586 14.2387V27.0991H4.3515V14.2387C4.3515 8.99277 8.60149 4.72521 13.8258 4.72521C15.1875 4.72521 16.4791 5.02026 17.6498 5.5413C17.0267 5.87792 16.441 6.27158 15.88 6.69738C15.2242 6.51701 14.5377 6.4124 13.8258 6.4124C9.52845 6.4124 6.03174 9.92352 6.03174 14.2387V27.0991H7.36738V14.2387C7.36738 10.6625 10.2644 7.75353 13.8258 7.75353C14.0829 7.75353 14.3347 7.77297 14.5831 7.80181C11.9827 10.3279 10.3578 13.8598 10.3578 17.7713V27.0991H11.6935V17.7713C11.6935 13.9316 13.4245 10.4935 16.1398 8.19077C16.7142 8.41341 17.2478 8.71516 17.7292 9.08395C15.092 11.0648 13.3737 14.2159 13.3737 17.7713V27.0991H14.7093V17.7713C14.7093 14.57 16.2961 11.7401 18.717 10.0148C19.0822 10.4405 19.3908 10.9153 19.6379 11.427C17.6744 12.8493 16.3896 15.1601 16.3896 17.7713V27.0991H17.7252V17.7713C17.7252 15.7469 18.6542 13.9369 20.106 12.7473C20.2188 13.2268 20.285 13.7251 20.285 14.2387V27.0991H21.6206V14.2387C21.6206 13.4541 21.5024 12.6978 21.2874 11.9822C21.7849 11.7301 22.3158 11.5356 22.8761 11.4196C23.1519 12.3108 23.3008 13.2577 23.3008 14.2387V27.0991H24.6365V14.2387C24.6365 13.2147 24.4849 12.2276 24.2197 11.2875C24.8462 11.2908 25.4506 11.3861 26.0228 11.5571C26.2112 12.4221 26.3174 13.318 26.3174 14.2387V27.0991H27.653V14.2387C27.653 13.5474 27.5855 12.8734 27.4881 12.2089C29.3733 13.3422 30.6428 15.4082 30.6428 17.7713V27.0991H31.9784V17.7713C31.9784 14.505 29.9744 11.7033 27.1375 10.5317C26.9465 9.84306 26.7074 9.17717 26.4182 8.53542C30.566 9.54867 33.6587 13.2992 33.6587 17.7713V27.0991H34.9943V17.7713C34.9943 12.2739 30.9006 7.73007 25.6155 7.02259C25.2322 6.39359 24.8067 5.79479 24.3319 5.23619C31.1504 5.31733 36.6745 10.9053 36.6745 17.7713V27.0991H38.0102V17.7713C38.0102 10.116 31.8082 3.88766 24.1837 3.88766Z" fill="white"/>
</svg>
