<svg width="192" height="34" viewBox="0 0 192 34" fill="none" xmlns="http://www.w3.org/2000/svg">
<g clip-path="url(#clip0_404_4)">
<path fill-rule="evenodd" clip-rule="evenodd" d="M25.5967 10.0797C25.1379 9.99521 24.6671 9.94421 24.1843 9.94421C24.0414 9.94421 23.9025 9.95832 23.7616 9.96636C23.5205 9.40174 23.228 8.86527 22.8987 8.35561C23.3202 8.29725 23.7468 8.25701 24.1843 8.25701C24.3987 8.25701 24.609 8.27515 24.8194 8.28988C25.1266 8.85921 25.3797 9.46141 25.5967 10.0797ZM20.7872 10.7375C20.5321 10.2279 20.2282 9.74774 19.873 9.30914C20.3851 9.04564 20.9214 8.82436 21.4817 8.656C21.825 9.12877 22.1235 9.63305 22.3759 10.1655C21.821 10.2989 21.29 10.4921 20.7872 10.7375ZM17.3664 7.27498C17.912 6.9169 18.487 6.6024 19.0867 6.33216C19.619 6.69024 20.1125 7.1013 20.5605 7.55661C19.9836 7.76384 19.4273 8.01261 18.9004 8.31034C18.4336 7.90732 17.9194 7.55996 17.3664 7.27498ZM22.6152 5.33887C23.1061 5.82771 23.5489 6.3635 23.9542 6.9275C23.2831 6.94223 22.6239 7.00995 21.9875 7.14204C21.5561 6.64315 21.0832 6.18245 20.5697 5.76872C21.2295 5.56754 21.914 5.42806 22.6152 5.33887ZM24.1837 3.88766C23.8077 3.88766 23.4391 3.91448 23.0704 3.94465C20.6182 1.72169 17.382 0.355713 13.8258 0.355713C6.20205 0.355713 0 6.58336 0 14.2387V27.0991H1.33564V14.2387C1.33564 7.32303 6.93928 1.69687 13.8258 1.69687C16.6226 1.69687 19.1991 2.63568 21.2834 4.20081C20.5661 4.35505 19.8736 4.57366 19.2024 4.83451C17.617 3.91716 15.7845 3.38405 13.8258 3.38405C7.86556 3.38405 3.01586 8.2531 3.01586 14.2387V27.0991H4.3515V14.2387C4.3515 8.99277 8.60149 4.72521 13.8258 4.72521C15.1875 4.72521 16.4791 5.02026 17.6498 5.5413C17.0267 5.87792 16.441 6.27158 15.88 6.69738C15.2242 6.51701 14.5377 6.4124 13.8258 6.4124C9.52845 6.4124 6.03174 9.92352 6.03174 14.2387V27.0991H7.36738V14.2387C7.36738 10.6625 10.2644 7.75353 13.8258 7.75353C14.0829 7.75353 14.3347 7.77297 14.5831 7.80181C11.9827 10.3279 10.3578 13.8598 10.3578 17.7713V27.0991H11.6935V17.7713C11.6935 13.9316 13.4245 10.4935 16.1398 8.19077C16.7142 8.41341 17.2478 8.71516 17.7292 9.08395C15.092 11.0648 13.3737 14.2159 13.3737 17.7713V27.0991H14.7093V17.7713C14.7093 14.57 16.2961 11.7401 18.717 10.0148C19.0822 10.4405 19.3908 10.9153 19.6379 11.427C17.6744 12.8493 16.3896 15.1601 16.3896 17.7713V27.0991H17.7252V17.7713C17.7252 15.7469 18.6542 13.9369 20.106 12.7473C20.2188 13.2268 20.285 13.7251 20.285 14.2387V27.0991H21.6206V14.2387C21.6206 13.4541 21.5024 12.6978 21.2874 11.9822C21.7849 11.7301 22.3158 11.5356 22.8761 11.4196C23.1519 12.3108 23.3008 13.2577 23.3008 14.2387V27.0991H24.6365V14.2387C24.6365 13.2147 24.4849 12.2276 24.2197 11.2875C24.8462 11.2908 25.4506 11.3861 26.0228 11.5571C26.2112 12.4221 26.3174 13.318 26.3174 14.2387V27.0991H27.653V14.2387C27.653 13.5474 27.5855 12.8734 27.4881 12.2089C29.3733 13.3422 30.6428 15.4082 30.6428 17.7713V27.0991H31.9784V17.7713C31.9784 14.505 29.9744 11.7033 27.1375 10.5317C26.9465 9.84306 26.7074 9.17717 26.4182 8.53542C30.566 9.54867 33.6587 13.2992 33.6587 17.7713V27.0991H34.9943V17.7713C34.9943 12.2739 30.9006 7.73007 25.6155 7.02259C25.2322 6.39359 24.8067 5.79479 24.3319 5.23619C31.1504 5.31733 36.6745 10.9053 36.6745 17.7713V27.0991H38.0102V17.7713C38.0102 10.116 31.8082 3.88766 24.1837 3.88766Z" fill="white"/>
<path fill-rule="evenodd" clip-rule="evenodd" d="M47.7559 26.8044V25.8955C48.7958 25.8316 49.5425 25.4378 49.9959 24.7153C50.4476 23.992 50.737 22.6838 50.8614 20.7916L51.6572 8.87689C51.6683 8.77075 51.6755 8.66224 51.681 8.55043C51.6858 8.43784 51.6889 8.27095 51.6889 8.0474C51.6889 7.04786 51.5225 6.3253 51.1896 5.87815C50.8567 5.43183 50.3097 5.19773 49.5504 5.17667V4.26782H58.8836L61.662 14.4911L64.612 4.26782H73.9765V5.17667C73.06 5.26173 72.4416 5.46342 72.1192 5.78255C71.7967 6.1017 71.6352 6.68655 71.6352 7.53706C71.6352 7.9097 71.6403 8.26285 71.651 8.59741C71.6612 8.93276 71.677 9.24381 71.6974 9.53139L72.4625 21.732C72.5868 23.5407 72.842 24.6643 73.2271 25.1058C73.6117 25.5472 74.33 25.8097 75.3809 25.8955V26.8044H63.1291V25.8955C64.0654 25.7675 64.6956 25.5553 65.0174 25.2572C65.3399 24.96 65.5014 24.465 65.5014 23.774C65.5014 23.5505 65.4958 23.2848 65.4856 22.9762C65.4754 22.6684 65.4596 22.333 65.4387 21.9718L64.7995 8.78129L59.2428 27.3625L52.8438 9.132L52.048 20.8548C52.0369 20.9722 52.0187 21.2168 51.9933 21.5894C51.9672 21.9612 51.9545 22.2536 51.9545 22.4667C51.9545 23.668 52.1519 24.5339 52.5474 25.066C52.9421 25.5983 53.5825 25.8745 54.4672 25.8955V26.8044H47.7559Z" fill="white"/>
<path fill-rule="evenodd" clip-rule="evenodd" d="M84.729 17.3941C83.7916 17.7773 83.0795 18.3808 82.5905 19.2037C82.1014 20.0283 81.8569 21.036 81.8569 22.2267C81.8569 22.908 81.9896 23.4499 82.255 23.8541C82.5204 24.2583 82.866 24.46 83.2924 24.46C83.8441 24.46 84.2213 24.2364 84.4246 23.7901C84.6274 23.3437 84.729 22.2267 84.729 20.4406V17.3941ZM85.026 24.7466C84.2349 25.6717 83.4048 26.3602 82.5363 26.8122C81.6672 27.2642 80.7495 27.4902 79.7816 27.4902C78.5026 27.4902 77.4641 27.1209 76.6684 26.3821C75.8722 25.6433 75.4746 24.694 75.4746 23.5349C75.4746 22.1635 76.08 20.9695 77.2918 19.9537C78.5043 18.9388 80.9833 17.6913 84.7296 16.2138V15.0814C84.7296 13.8907 84.5811 13.0369 84.284 12.5209C83.9876 12.0058 83.5013 11.7474 82.8254 11.7474C82.2737 11.7474 81.8157 11.915 81.452 12.2495C81.0872 12.5849 80.9059 13.0021 80.9059 13.5019C80.9059 13.7676 80.915 14.0786 80.9364 14.4358C80.9573 14.7914 80.9675 15.0174 80.9675 15.1138C80.9675 15.8898 80.7574 16.5143 80.3356 16.9874C79.9143 17.4605 79.3553 17.697 78.6579 17.697C78.0237 17.697 77.5132 17.4921 77.1286 17.083C76.7435 16.6731 76.5509 16.1336 76.5509 15.4637C76.5509 14.0179 77.2224 12.8198 78.5641 11.8672C79.907 10.9163 81.6333 10.4399 83.7459 10.4399C84.9323 10.4399 86.0064 10.5938 86.9686 10.9025C87.9315 11.2111 88.7198 11.6574 89.3336 12.2423C89.8323 12.7202 90.1869 13.2791 90.3941 13.9166C90.6031 14.5549 90.7076 15.518 90.7076 16.8036V21.3494C90.7076 22.6147 90.8036 23.5138 90.9961 24.0452C91.1876 24.5765 91.4976 24.8422 91.9239 24.8422C92.0177 24.8422 92.1114 24.8211 92.2057 24.7783C92.2989 24.7361 92.3972 24.6721 92.5022 24.5871V25.6239C92.0849 26.1658 91.5467 26.5871 90.8866 26.8843C90.2253 27.1816 89.4946 27.3306 88.6932 27.3306C87.7779 27.3306 87.0104 27.1127 86.3915 26.6769C85.7726 26.2412 85.3169 25.598 85.026 24.7466Z" fill="white"/>
<path fill-rule="evenodd" clip-rule="evenodd" d="M100.875 23.5666C100.875 24.3856 101.018 24.9728 101.304 25.3293C101.59 25.6848 102.066 25.8744 102.732 25.8955V26.8043H92.8521V25.8955H92.9464C93.6331 25.8955 94.1244 25.7173 94.4209 25.3609C94.7173 25.0044 94.8659 24.4067 94.8659 23.5666V17.5538C94.8659 17.0427 94.8037 16.6652 94.6784 16.4214C94.5541 16.1768 94.3198 15.937 93.9764 15.7037L92.0254 14.2999C93.3152 13.8212 94.6501 13.2526 96.0286 12.5932C97.407 11.9347 98.8408 11.1732 100.329 10.313V13.0234C100.953 12.1736 101.682 11.5345 102.514 11.1101C103.346 10.6848 104.282 10.4718 105.323 10.4718C107.03 10.4718 108.302 10.9165 109.139 11.8043C109.977 12.6912 110.395 14.0448 110.395 15.8625V23.5666C110.395 24.4067 110.543 25.0044 110.841 25.3609C111.137 25.7173 111.629 25.8955 112.315 25.8955H112.408V26.8043H104.387V16.0229C104.387 14.8743 104.248 14.0764 103.973 13.6292C103.697 13.1837 103.232 12.9602 102.576 12.9602C101.962 12.9602 101.525 13.191 101.266 13.6543C101.005 14.1161 100.875 14.9058 100.875 16.0229V23.5666Z" fill="white"/>
<path fill-rule="evenodd" clip-rule="evenodd" d="M121.405 20.4718C122.206 20.4718 122.783 20.1316 123.137 19.4512C123.491 18.7708 123.668 17.6489 123.668 16.0864C123.668 14.4809 123.491 13.3241 123.137 12.617C122.783 11.9099 122.206 11.5559 121.405 11.5559C120.593 11.5559 120.011 11.8969 119.656 12.5773C119.302 13.2577 119.126 14.416 119.126 16.0539C119.126 17.6278 119.306 18.7578 119.665 19.4431C120.023 20.1292 120.603 20.4718 121.405 20.4718ZM116.13 28.8932C116.088 29.0001 116.056 29.1005 116.036 29.1969C116.015 29.2925 116.005 29.3881 116.005 29.4837C116.005 30.271 116.478 30.9514 117.425 31.5258C118.371 32.0993 119.558 32.3868 120.983 32.3868C122.367 32.3868 123.475 32.1389 124.309 31.6448C125.14 31.1507 125.557 30.5051 125.557 29.7073C125.557 29.218 125.383 28.8251 125.034 28.5271C124.685 28.2289 124.219 28.0807 123.637 28.0807C123.272 28.0807 122.443 28.2662 121.147 28.6388C119.852 29.0106 118.741 29.1969 117.815 29.1969C117.555 29.1969 117.279 29.1702 116.988 29.1175C116.697 29.0633 116.411 28.9896 116.13 28.8932ZM116.223 20.3285C115.495 19.8498 114.941 19.2577 114.561 18.5506C114.181 17.8434 113.991 17.0641 113.991 16.2136C113.991 14.5021 114.704 13.1064 116.13 12.0266C117.555 10.9477 119.418 10.4082 121.717 10.4082C121.998 10.4082 122.286 10.4244 122.583 10.456C122.88 10.4876 123.189 10.5353 123.512 10.5993C123.855 9.68563 124.376 8.96715 125.073 8.44548C125.769 7.92545 126.56 7.66382 127.445 7.66382C128.09 7.66382 128.623 7.8558 129.044 8.23813C129.466 8.62126 129.677 9.10564 129.677 9.68965C129.677 10.1902 129.515 10.6074 129.193 10.942C128.87 11.2765 128.47 11.4442 127.991 11.4442C127.575 11.4442 127.065 11.2668 126.462 10.9104C125.858 10.554 125.436 10.3758 125.197 10.3758C125.042 10.3758 124.906 10.4106 124.792 10.4795C124.677 10.5491 124.578 10.6528 124.494 10.7905C125.9 11.2798 126.971 11.9796 127.71 12.8885C128.449 13.7973 128.818 14.8633 128.818 16.0865C128.818 17.7551 128.111 19.1111 126.696 20.1528C125.281 21.1961 123.418 21.7161 121.108 21.7161C120.484 21.7161 119.863 21.6578 119.243 21.5404C118.624 21.4237 118.003 21.2536 117.378 21.0301C116.879 21.1159 116.486 21.2917 116.199 21.5566C115.914 21.8231 115.771 22.1365 115.771 22.4978C115.771 22.9231 115.929 23.269 116.246 23.5346C116.564 23.8003 116.983 23.9332 117.503 23.9332C117.992 23.9332 118.861 23.6837 120.109 23.1839L120.281 23.1199C121.301 22.7165 122.128 22.4395 122.762 22.2904C123.398 22.1422 124.011 22.0677 124.604 22.0677C126.165 22.0677 127.432 22.5432 128.405 23.4942C129.378 24.4459 129.864 25.6829 129.864 27.2033C129.864 29.1595 129.052 30.7301 127.43 31.916C125.806 33.1019 123.626 33.694 120.89 33.694C118.653 33.694 116.9 33.3813 115.63 32.7536C114.361 32.1258 113.726 31.2647 113.726 30.1696C113.726 29.7549 113.809 29.3822 113.976 29.0533C114.142 28.7237 114.402 28.4207 114.756 28.1445C114.194 27.75 113.764 27.2559 113.468 26.6614C113.171 26.0652 113.023 25.3953 113.023 24.6508C113.023 23.6197 113.294 22.74 113.835 22.011C114.376 21.2828 115.172 20.7223 116.223 20.3285Z" fill="white"/>
<path fill-rule="evenodd" clip-rule="evenodd" d="M138.139 13.1193C138.659 12.2258 139.223 11.5559 139.832 11.1104C140.441 10.6632 141.094 10.4397 141.791 10.4397C142.561 10.4397 143.18 10.6738 143.649 11.142C144.117 11.6102 144.35 12.2258 144.35 12.992C144.35 13.662 144.156 14.199 143.765 14.6024C143.375 15.0066 142.858 15.2091 142.212 15.2091C141.63 15.2091 141.071 14.9693 140.535 14.4906C139.999 14.0127 139.659 13.7738 139.512 13.7738C139.169 13.7738 138.925 14.0078 138.779 14.4752C138.633 14.9434 138.56 15.7777 138.56 16.9798V23.5662C138.56 24.3956 138.724 24.991 139.052 25.3531C139.38 25.7143 139.919 25.895 140.667 25.895H140.761V26.8047H130.538V25.895H130.632C131.319 25.895 131.811 25.7176 132.107 25.3603C132.403 25.0048 132.552 24.407 132.552 23.5662V17.5541C132.552 17.043 132.489 16.6655 132.364 16.4209C132.24 16.1763 132.006 15.9373 131.661 15.7032L129.711 14.2995C130.73 13.9381 131.907 13.4408 133.238 12.8082C134.57 12.1755 136.203 11.3445 138.139 10.3125V13.1193Z" fill="white"/>
<path fill-rule="evenodd" clip-rule="evenodd" d="M153.138 26.2784C154.095 26.2784 154.756 25.8158 155.12 24.89C155.484 23.9657 155.666 21.9877 155.666 18.9574C155.666 15.9481 155.484 13.983 155.12 13.0644C154.756 12.1442 154.095 11.6841 153.138 11.6841C152.191 11.6841 151.538 12.1248 151.179 13.0077C150.82 13.8906 150.641 15.8736 150.641 18.9574C150.641 22.0622 150.82 24.0589 151.179 24.9458C151.538 25.8345 152.191 26.2784 153.138 26.2784ZM153.139 27.4898C150.403 27.4898 148.204 26.7082 146.546 25.1456C144.886 23.5823 144.057 21.5192 144.057 18.957C144.057 16.4054 144.886 14.3529 146.546 12.8C148.204 11.248 150.403 10.4712 153.139 10.4712C155.876 10.4712 158.079 11.2505 159.749 12.8081C161.42 14.3658 162.255 16.4152 162.255 18.957C162.255 21.5086 161.416 23.5685 159.741 25.1375C158.066 26.7057 155.866 27.4898 153.139 27.4898Z" fill="white"/>
<path fill-rule="evenodd" clip-rule="evenodd" d="M170.017 27.4901L162.853 13.8047V13.7892C162.281 12.6836 161.505 12.1092 160.527 12.0663V11.1575H171.172V12.0663C170.642 12.0663 170.251 12.1417 170.001 12.2899C169.751 12.4389 169.626 12.673 169.626 12.9922C169.626 13.1193 169.645 13.2441 169.682 13.3664C169.717 13.4887 169.788 13.6564 169.892 13.8694L172.576 19.7227L175.058 14.4907C175.141 14.3206 175.206 14.1376 175.253 13.9407C175.3 13.7439 175.323 13.5446 175.323 13.3421C175.323 12.9274 175.175 12.6115 174.878 12.3936C174.582 12.1757 174.143 12.0663 173.56 12.0663H173.435V11.1575H179.163V12.0663C178.58 12.0987 178.096 12.2713 177.711 12.5855C177.326 12.8982 176.926 13.4701 176.51 14.2996L170.017 27.4901Z" fill="white"/>
<path fill-rule="evenodd" clip-rule="evenodd" d="M182.933 16.2936H184.369C185.784 16.2936 186.653 16.1689 186.975 15.9186C187.298 15.6691 187.459 15.1928 187.459 14.4905C187.459 13.5444 187.293 12.8348 186.96 12.3618C186.627 11.8895 186.122 11.6522 185.446 11.6522C184.583 11.6522 183.947 12.0215 183.542 12.7611C183.136 13.4999 182.933 14.6776 182.933 16.2936ZM191.938 24.1567C191.054 25.2413 190.04 26.0675 188.895 26.637C187.751 27.2056 186.528 27.49 185.228 27.49C184.041 27.49 182.93 27.2461 181.895 26.7569C180.859 26.2676 179.967 25.5653 179.219 24.6508C178.604 23.9064 178.141 23.0802 177.83 22.1713C177.517 21.2617 177.361 20.2807 177.361 19.2285C177.361 18.1439 177.512 17.1337 177.814 16.1982C178.115 15.2626 178.573 14.3797 179.187 13.5502C179.853 12.6252 180.751 11.8759 181.88 11.3015C183.008 10.7273 184.155 10.4397 185.321 10.4397C187.349 10.4397 188.971 11.0731 190.182 12.3376C191.394 13.6037 192.001 15.299 192.001 17.4253H182.965C183.026 19.3184 183.63 20.8923 184.775 22.147C185.919 23.4017 187.298 24.0295 188.911 24.0295C189.525 24.0295 190.081 23.9145 190.581 23.686C191.08 23.4576 191.533 23.115 191.938 22.6573V24.1567Z" fill="white"/>
</g>
<defs>
<clipPath id="clip0_404_4">
<rect width="192" height="34" fill="white"/>
</clipPath>
</defs>
</svg>
